<?xml version="1.0" encoding="UTF-8"?>
<svg version="1.1" xmlns="http://www.w3.org/2000/svg" width="500" height="500">
<path d="M0 0 C165 0 330 0 500 0 C500 165 500 330 500 500 C335 500 170 500 0 500 C0 335 0 170 0 0 Z " fill="#0CE7FE" transform="translate(0,0)"/>
<path d="M0 0 C139.26 0 278.52 0 422 0 C420.35110689 3.29778622 419.41690077 4.83263594 416.94277763 7.30331802 C416.31178433 7.93829342 415.68079103 8.57326882 415.03067672 9.2274859 C413.98885921 10.26056489 413.98885921 10.26056489 412.92599487 11.31451416 C412.1892466 12.05297128 411.45249832 12.79142841 410.69342434 13.55226302 C408.21685238 16.03213628 405.73318661 18.50478115 403.24951172 20.97753906 C401.47541078 22.75107603 399.70174978 24.52505317 397.92849731 26.29943848 C394.10638792 30.12200371 390.28123099 33.94147788 386.45327377 37.75818634 C380.918698 43.27650889 375.3896523 48.80034499 369.86194123 54.3255429 C360.8934764 63.28963035 351.92055421 72.24924226 342.94482422 81.20605469 C334.2256849 89.90683632 325.50864837 98.6097158 316.79443359 107.31542969 C316.25729984 107.852038 315.72016608 108.38864631 315.16675554 108.94151548 C312.4721296 111.63353135 309.77754497 114.32558856 307.08298087 117.01766634 C284.72838819 139.35152518 262.36648617 161.67805184 240 184 C236.19597017 182.24183495 233.97143714 179.97143714 231 177 C221.88537517 169.04469149 213.18979835 167.14916643 201.2265625 167.59765625 C191.53049568 168.29519938 184.10209167 172.82093603 177.19921875 179.45703125 C168.29870616 189.74874297 167.27186546 199.89372436 167.81201172 212.89794922 C168.19277835 217.15561242 169.70089661 220.46048687 172 224 C172.639375 225.0725 173.27875 226.145 173.9375 227.25 C176.08853624 230.11804831 178.40137639 232.53463914 181 235 C182 236 183 237 184 238 C182.67176985 240.9436767 181.2270909 243.02323363 178.94836426 245.30331802 C178.31860435 245.93829342 177.68884445 246.57326882 177.04000092 247.2274859 C176.34682014 247.91620522 175.65363937 248.60492455 174.93945312 249.31451416 C174.20411598 250.05297128 173.46877884 250.79142841 172.71115875 251.55226302 C170.23927173 254.03214462 167.76027643 256.5047959 165.28125 258.97753906 C163.51040776 260.75109046 161.73999148 262.52506725 159.9699707 264.29943848 C155.65674406 268.6208499 151.3388407 272.9375392 147.01862335 277.25196055 C143.50910297 280.75696696 140.00153615 284.2639172 136.49536133 287.7722702 C135.99664473 288.27129327 135.49792813 288.77031633 134.98409891 289.2844613 C133.97104896 290.29815069 132.95800351 291.31184457 131.9449625 292.3255429 C122.44424342 301.83196597 112.93740184 311.33224726 103.42846012 320.83044454 C95.26262931 328.9873343 87.10206425 337.14946138 78.9453125 345.31542969 C69.47834543 354.79308871 60.00815669 364.26750916 50.53276825 373.73674941 C49.52338752 374.74549302 48.51401098 375.75424082 47.50463867 376.76299286 C47.00797022 377.25935276 46.51130177 377.75571265 45.99958277 378.26711376 C42.49307112 381.77189564 38.98889163 385.27899899 35.4855957 388.78699493 C30.77573987 393.50303044 26.06063191 398.21376819 21.34188843 402.9209137 C19.60586678 404.65427946 17.87156586 406.38937045 16.1390686 408.12625885 C13.7841336 410.48661402 11.42319855 412.84079329 9.06054688 415.19342041 C8.3673661 415.89106262 7.67418533 416.58870484 6.95999908 417.30748773 C6.33023918 417.93203213 5.70047928 418.55657654 5.05163574 419.20004654 C4.23420521 420.01699002 4.23420521 420.01699002 3.40026093 420.8504374 C2 422 2 422 0 422 C0 282.74 0 143.48 0 0 Z " fill="#4FAFFE" transform="translate(0,0)"/>
<path d="M0 0 C0 121.44 0 242.88 0 368 C-121.44 368 -242.88 368 -368 368 C-363.89170024 363.20698361 -359.78452007 358.62633737 -355.34988403 354.16233826 C-354.70676171 353.51130585 -354.06363939 352.86027345 -353.40102851 352.18951279 C-351.26204439 350.02562245 -349.11961391 347.86518023 -346.97705078 345.70483398 C-345.43550765 344.14718849 -343.89410402 342.58940492 -342.35282898 341.03149414 C-328.30872643 326.84306369 -314.22993678 312.68889461 -300.14312935 298.54287624 C-298.26008448 296.6517608 -296.3770669 294.76061828 -294.49414062 292.86938477 C-294.02622285 292.39940939 -293.55830508 291.92943401 -293.07620798 291.44521696 C-285.97363793 284.31039043 -278.88711549 277.15988928 -271.80957031 270.00024414 C-263.57117369 261.66659009 -255.31525326 253.35078184 -247.03763378 245.05607849 C-242.66373895 240.67204763 -238.2987244 236.27996742 -233.95444107 231.86657524 C-229.86398052 227.7117586 -225.75014188 223.58156481 -221.61779213 219.46842194 C-220.11279145 217.96227472 -218.61620451 216.44766084 -217.12922859 214.92371559 C-208.88471818 206.48507306 -201.8352269 200.41418876 -190.37801933 197.06619358 C-185.73064229 195.59935663 -182.47241741 193.35355715 -179 190 C-178.19369141 189.25169922 -178.19369141 189.25169922 -177.37109375 188.48828125 C-172.07514473 183.00650945 -169.10516023 175.59383169 -167.33873081 168.25129509 C-165.54197749 163.88762826 -162.83456002 161.28929316 -159.50218201 158.01443481 C-158.82739258 157.33552213 -158.15260316 156.65660944 -157.45736557 155.95712364 C-155.19509355 153.68592547 -152.91882057 151.4293069 -150.64233398 149.17236328 C-149.01721418 147.5467347 -147.3929677 145.92023265 -145.76953125 144.29292297 C-141.35932221 139.87729136 -136.93679571 135.47418684 -132.51184344 131.07333612 C-127.88898953 126.47175339 -123.27705724 121.85925 -118.66383362 117.24801636 C-110.91864984 109.50928117 -103.16616711 101.77792514 -95.40844727 94.05175781 C-87.42004542 86.09582037 -79.43728532 78.13428286 -71.46118164 70.16601562 C-70.72353651 69.42909873 -70.72353651 69.42909873 -69.97098946 68.67729463 C-67.99453516 66.7027689 -66.01808908 64.72823494 -64.04166135 62.75368262 C-55.98794585 54.70794445 -47.92958731 46.66685794 -39.87067151 38.62632895 C-37.11411039 35.87584454 -34.35801849 33.12489049 -31.6019268 30.3739357 C-27.2814383 26.06220179 -22.95819939 21.75324407 -18.63275909 17.44647789 C-17.04071999 15.86058268 -15.44953183 14.27383273 -13.85923195 12.68619347 C-11.69875401 10.52967062 -9.53523722 8.37624581 -7.37083435 6.22366333 C-6.73310496 5.58574958 -6.09537557 4.94783583 -5.43832105 4.29059136 C-1.11423622 0 -1.11423622 0 0 0 Z " fill="#309EFE" transform="translate(500,132)"/>
<path d="M0 0 C7.59 0 15.18 0 23 0 C16.24971453 7.87533305 16.24971453 7.87533305 13.67316532 10.46943569 C12.78913063 11.36293229 12.78913063 11.36293229 11.88723665 12.27447933 C10.94593194 13.21857704 10.94593194 13.21857704 9.98561096 14.18174744 C8.96239971 15.21364876 8.96239971 15.21364876 7.91851753 16.26639658 C5.64798434 18.55486785 3.37396656 20.83984236 1.09985352 23.12475586 C-0.5351337 24.7709282 -2.16995611 26.41726423 -3.80462646 28.06375122 C-9.15600639 33.45154198 -14.51293233 38.83379809 -19.87109375 44.21484375 C-20.78326322 45.13095908 -21.69543269 46.04707442 -22.63524365 46.99095082 C-31.23761573 55.62970444 -39.84238728 64.26606137 -48.45239162 72.89720821 C-50.4410385 74.89082373 -52.42964741 76.88447712 -54.41821289 78.87817383 C-54.91241638 79.37364798 -55.40661986 79.86912214 -55.91579921 80.37961067 C-63.93703082 88.4222438 -71.94433529 96.47860077 -79.94624662 104.5404517 C-88.17010002 112.82539663 -96.40736881 121.0968098 -104.65689903 129.35618883 C-109.28529788 133.99085564 -113.9075325 138.63131071 -118.51556206 143.28623772 C-122.84491345 147.6591102 -127.19039479 152.01526915 -131.54896545 156.3590126 C-133.14700522 157.95738215 -134.73904014 159.56178087 -136.32461739 161.17251396 C-138.48683614 163.36722038 -140.66944996 165.53937068 -142.85862732 167.70713806 C-143.79658595 168.67465835 -143.79658595 168.67465835 -144.75349325 169.66172451 C-147.96739828 172.79661243 -149.18538169 173.94280397 -153.82133579 174.26830387 C-154.87029498 174.17976359 -155.91925417 174.09122332 -157 174 C-159.32931229 175.92248388 -159.32931229 175.92248388 -159.42578125 179.28149414 C-158.88991768 183.96138978 -157.55109809 185.26627513 -154.1875 188.49609375 C-153.69918701 188.97450211 -153.21087402 189.45291046 -152.70776367 189.94581604 C-151.15423743 191.46035831 -149.5781404 192.94866559 -148 194.4375 C-146.93851333 195.46385204 -145.87859813 196.49183201 -144.8203125 197.52148438 C-142.2314653 200.03342412 -139.62179499 202.52241641 -137 205 C-138.52209932 208.65959287 -140.69022026 210.83097777 -143.5703125 213.51953125 C-144.46621094 214.37740234 -145.36210937 215.23527344 -146.28515625 216.11914062 C-148.17667399 217.91309039 -150.0777527 219.69701325 -151.98828125 221.47070312 C-152.88160156 222.33244141 -153.77492188 223.19417969 -154.6953125 224.08203125 C-155.52047363 224.85780518 -156.34563477 225.6335791 -157.19580078 226.43286133 C-159.53827291 229.76589169 -159.33572825 232.01604502 -159 236 C-156.11261759 237.44369121 -154.20536834 237.36248579 -151 237 C-148.17149303 234.99714943 -148.17149303 234.99714943 -145.6015625 232.1875 C-145.1217392 231.69918701 -144.64191589 231.21087402 -144.14755249 230.70776367 C-142.6253199 229.15206962 -141.12532253 227.57680579 -139.625 226 C-138.5938495 224.93874055 -137.56131098 223.87882786 -136.52734375 222.8203125 C-134.00196381 220.22894777 -131.49610465 217.61961148 -129 215 C-124.73384496 217.04066983 -122.26601476 219.58553002 -119 223 C-120.57913139 226.95711109 -123.32651926 229.4966431 -126.36767578 232.35668945 C-127.50014083 233.43983024 -128.63246884 234.52311433 -129.76467896 235.60652161 C-130.36453739 236.17705576 -130.96439583 236.74758991 -131.58243179 237.33541298 C-134.7697483 240.37727651 -137.92318076 243.45402502 -141.08203125 246.52539062 C-145.09611558 250.42576475 -149.11927201 254.31479847 -153.18408203 258.16235352 C-156.47447991 261.27865484 -159.72608984 264.43117857 -162.95568466 267.61040306 C-164.18710845 268.80930175 -165.43184057 269.99469864 -166.69015884 271.16533852 C-174.24153181 277.85837075 -174.24153181 277.85837075 -177.70574951 286.9559021 C-177.75262478 290.89130785 -177.75262478 290.89130785 -177.31222534 294.56730652 C-176.52062529 303.27038081 -179.86819641 311.1524428 -185 318 C-185.70125 319.010625 -186.4025 320.02125 -187.125 321.0625 C-193.00623606 327.87726559 -202.03084756 332.5739311 -210.91796875 333.3359375 C-224.73127865 333.62877645 -234.60280326 330.81868423 -244.87109375 321.2578125 C-252.96800459 312.86488557 -255.63923811 303.49814984 -255.46655273 292.10595703 C-255.23011135 286.56629307 -254.20695657 282.0576088 -252 277 C-256.88490088 281.09892102 -261.49091929 285.35087531 -265.98519897 289.87167358 C-266.65200987 290.53833562 -267.31882076 291.20499765 -268.00583804 291.89186156 C-270.22290925 294.10962313 -272.43639294 296.33092997 -274.64990234 298.55224609 C-276.24512829 300.14939255 -277.84058306 301.74631049 -279.43624878 303.34301758 C-282.86269776 306.77262036 -286.28758874 310.20376874 -289.71128464 313.63611984 C-295.11977016 319.05814129 -300.53208015 324.47633417 -305.94497681 329.89395142 C-313.52708123 337.48337938 -321.10779009 345.0741972 -328.68701172 352.66650391 C-329.16727049 353.14759049 -329.64752926 353.62867707 -330.14234133 354.12434204 C-333.55327573 357.54117994 -336.96414369 360.95808415 -340.375 364.375 C-344.28168882 368.2886236 -348.18841287 372.20221202 -352.09521484 376.11572266 C-352.81744807 376.83919807 -352.81744807 376.83919807 -353.55427186 377.57728915 C-361.57016991 385.60685223 -369.58803639 393.63444639 -377.60726511 401.66068327 C-382.99409956 407.0525152 -388.37848302 412.44677953 -393.76103663 417.84288478 C-397.09844279 421.18771735 -400.43788985 424.53050642 -403.77791214 427.87272644 C-405.33288539 429.42958134 -406.88698929 430.98730506 -408.44018555 432.54593277 C-410.55008579 434.66298239 -412.66298618 436.77699015 -414.77670288 438.89022827 C-415.39934883 439.51646918 -416.02199477 440.14271008 -416.66350877 440.78792799 C-420.88590679 445 -420.88590679 445 -422 445 C-422.23397242 441.31358455 -422.37493711 437.62908844 -422.5 433.9375 C-422.60054688 432.37999023 -422.60054688 432.37999023 -422.703125 430.79101562 C-422.72890625 429.77587891 -422.7546875 428.76074219 -422.78125 427.71484375 C-422.82314453 426.78792725 -422.86503906 425.86101074 -422.90820312 424.90600586 C-421.87707437 421.60667103 -421.02271286 420.93923964 -418.41859436 418.78621578 C-414.20855913 415.21027927 -410.28995234 411.42746238 -406.39428711 407.51454163 C-405.67283005 406.79393899 -404.95137299 406.07333635 -404.20805359 405.33089727 C-401.81210623 402.93658565 -399.41973003 400.53873857 -397.02734375 398.14086914 C-395.30226264 396.41550572 -393.57696083 394.69036294 -391.85145569 392.96542358 C-388.14777323 389.26196821 -384.44561851 385.55699305 -380.74487305 381.8506031 C-375.39432978 376.49190439 -370.04100036 371.13599607 -364.6870048 365.78074687 C-355.99884964 357.09040752 -347.31292617 348.39784119 -338.62841797 339.70385742 C-330.19632716 331.26257607 -321.76317812 322.82235424 -313.32861328 314.38354492 C-312.80799084 313.86265976 -312.2873684 313.3417746 -311.75096953 312.80510504 C-309.13893938 310.19176977 -306.52688851 307.57845522 -303.91482735 304.96515095 C-282.27333904 283.31330978 -260.63551506 261.65781 -239 240 C-240.74635031 236.21090048 -243.00931825 233.91947504 -246 231 C-249.86140231 226.78756112 -251.82263964 222.2031757 -254 217 C-254.33 216.34 -254.66 215.68 -255 215 C-255.82659637 201.8828641 -255.24901186 191.44809672 -246.6796875 180.875 C-239.62702543 173.00226095 -231.66037027 167.43902044 -220.8359375 166.5546875 C-208.12902695 165.99684391 -198.98118996 168.78186809 -189.09375 177 C-187.12613295 178.8795148 -185.55205563 180.7714073 -184 183 C-181.06443998 181.67468489 -178.98801893 180.23781996 -176.71509266 177.96398163 C-176.08421736 177.33770512 -175.45334205 176.71142861 -174.80334932 176.06617403 C-174.11920306 175.37688421 -173.4350568 174.68759439 -172.73017883 173.97741699 C-171.99651083 173.2461634 -171.26284282 172.51490981 -170.50694245 171.76149702 C-168.04321846 169.30342081 -165.58672406 166.83824418 -163.13012695 164.37304688 C-161.36805737 162.61204989 -159.605555 160.85148587 -157.84265137 159.09132385 C-153.549056 154.80207855 -149.26013548 150.5082092 -144.97334472 146.21216691 C-139.98360564 141.21204633 -134.98864618 136.21715448 -129.99347093 131.22246569 C-121.08356988 122.31306528 -112.1785094 113.39884224 -103.27612305 104.48193359 C-94.63196386 95.8236806 -85.98430402 87.16894406 -77.33276367 78.51806641 C-76.79970776 77.98505045 -76.26665185 77.4520345 -75.71744273 76.90286654 C-75.18531958 76.37078375 -74.65319643 75.83870096 -74.10494834 75.29049444 C-64.26205522 65.44829061 -54.42245285 55.60280275 -44.58438397 45.75577685 C-41.1015235 42.26989649 -37.61768374 38.78499665 -34.1335392 35.30039978 C-29.44846881 30.61457727 -24.76619483 25.92597291 -20.08579254 21.23548698 C-18.36325595 19.51001957 -16.63986218 17.78540742 -14.91557121 16.06169319 C-12.57101653 13.71762615 -10.22954063 11.37052776 -7.88887024 9.02258301 C-7.19803181 8.33329319 -6.50719339 7.64400336 -5.79542047 6.93382597 C-5.17236841 6.30754946 -4.54931635 5.68127295 -3.90738392 5.03601837 C-3.36617242 4.49410244 -2.82496091 3.95218652 -2.26734906 3.3938489 C-0.88970232 2.0050933 -0.88970232 2.0050933 0 0 Z " fill="#15E9FE" transform="translate(422,0)"/>
<path d="M0 0 C3.12063077 25.74609012 3.12063077 25.74609012 -4.93209076 36.06116438 C-8.81739013 40.37324803 -12.94094156 44.36882275 -17.16601562 48.34472656 C-19.01437651 50.18517176 -20.85655884 52.03183947 -22.69303894 53.88414001 C-26.62822238 57.83387972 -30.61062054 61.72982831 -34.63163757 65.59207916 C-40.44437144 71.17545126 -46.17651113 76.83629739 -51.89309698 82.51787481 C-61.17306069 91.73683015 -70.51355856 100.89175849 -79.89501953 110.00732422 C-88.9980843 118.85265163 -98.07071916 127.72745412 -107.10498047 136.64306641 C-107.66354864 137.19427832 -108.22211681 137.74549024 -108.7976113 138.31340554 C-111.60011372 141.07936207 -114.40203786 143.84590355 -117.20367527 146.61273623 C-140.3802506 169.49989823 -163.65617533 192.28342848 -187 215 C-188.12588014 214.04270084 -189.2506715 213.08412105 -190.375 212.125 C-191.00148438 211.59132812 -191.62796875 211.05765625 -192.2734375 210.5078125 C-193.55836651 209.38567993 -194.79371975 208.20628025 -196 207 C-195.81568603 202.88347117 -193.17524536 200.91654069 -190.30859375 198.2265625 C-188.89223633 196.8653125 -188.89223633 196.8653125 -187.44726562 195.4765625 C-185.9428439 194.04658791 -184.4341139 192.62183739 -182.91723633 191.20507812 C-181.45141082 189.83007706 -180.00471505 188.43477219 -178.55859375 187.0390625 C-177.24846313 185.80470459 -177.24846313 185.80470459 -175.91186523 184.54541016 C-173.75495082 182.09511371 -173.75495082 182.09511371 -173.52758789 178.81005859 C-173.68348389 177.88273926 -173.83937988 176.95541992 -174 176 C-177.28577603 173.80948265 -178.18817487 173.36965685 -182 174 C-184.05897163 175.62270907 -185.73295363 177.14807463 -187.51953125 179.03125 C-188.02296555 179.54175903 -188.52639984 180.05226807 -189.04508972 180.57824707 C-190.64636321 182.20745309 -192.22935912 183.85318749 -193.8125 185.5 C-194.89662503 186.60920927 -195.98189932 187.71729651 -197.06835938 188.82421875 C-199.72573845 191.53665169 -202.36685937 194.26403939 -205 197 C-210.43733055 192.47008204 -215.46458931 187.65705784 -220.4375 182.625 C-221.16904297 181.88894531 -221.90058594 181.15289062 -222.65429688 180.39453125 C-224.43852723 178.59863926 -226.22036124 176.80044015 -228 175 C-226.7145402 172.19957653 -225.3493182 170.07512825 -223.23696613 167.83723831 C-222.67124183 167.23361347 -222.10551753 166.62998864 -221.52265006 166.00807214 C-220.58963523 165.02752095 -220.58963523 165.02752095 -219.63777161 164.02716064 C-218.97658142 163.32545549 -218.31539124 162.62375034 -217.63416499 161.90078139 C-215.41080696 159.54508642 -213.17997348 157.19662714 -210.94848633 154.84863281 C-209.35269017 153.16336546 -207.75692682 151.47806705 -206.16119385 149.79273987 C-191.9891374 134.85120303 -177.66568013 120.05543213 -163.28799008 105.31196214 C-160.79478214 102.75530694 -158.30268292 100.1975736 -155.8112793 97.63916016 C-155.31544225 97.13002704 -154.8196052 96.62089392 -154.30874278 96.09633252 C-146.33824826 87.90619049 -138.47377202 79.62151124 -130.646408 71.2947332 C-122.56860808 62.70608511 -114.38474661 54.22937608 -106.09816188 45.84195399 C-101.46305065 41.14458147 -96.88626123 36.40850884 -92.42252541 31.54624176 C-64.00648414 0.696397 -41.61581689 -5.79562931 0 0 Z " fill="#00F9FE" transform="translate(500,0)"/>
<path d="M0 0 C0.99 0.495 0.99 0.495 2 1 C1.2575 2.7015625 1.2575 2.7015625 0.5 4.4375 C-2.85150004 14.65312992 -2.40654598 26.63762934 2.33984375 36.2890625 C8.38848826 46.16614318 15.74280075 51.21225012 26 56 C21.95318428 60.82663277 17.74713383 65.44100366 13.35470581 69.95396423 C12.71188317 70.61739714 12.06906054 71.28083004 11.40675843 71.96436697 C9.26810672 74.1698205 7.12616465 76.37204362 4.98388672 78.57397461 C4.23117304 79.34895042 3.47845936 80.12392624 2.70293617 80.92238617 C-11.66772451 95.71775253 -26.11858947 110.43420919 -40.60382075 125.11736738 C-42.9700963 127.51599254 -45.33581025 129.91517087 -47.70117188 132.31469727 C-48.17192315 132.79222773 -48.64267443 133.2697582 -49.1276909 133.76175929 C-56.73809868 141.48475082 -64.29599902 149.25717664 -71.83520545 157.04961925 C-79.60249285 165.07556337 -87.42445414 173.04577745 -95.29523838 180.97038656 C-99.70299036 185.41160645 -104.08353845 189.8734002 -108.4064064 194.39741325 C-137.92181193 225.232621 -137.92181193 225.232621 -153.2715416 226.43678474 C-158.59263221 226.32592147 -163.81034596 225.09504298 -169 224 C-175.65214113 175.78430206 -175.65214113 175.78430206 -162.43969727 157.52346802 C-154.31877425 147.14245165 -144.56935901 138.1750497 -134.87398338 129.29731679 C-130.53039248 125.26783354 -126.31911098 121.10716488 -122.10196048 116.9461469 C-113.77076692 108.73399798 -105.32569121 100.65103306 -96.79541016 92.64624023 C-88.53259405 84.89190823 -80.33241339 77.07916388 -72.20458984 69.18334961 C-71.69978759 68.69299715 -71.19498534 68.20264469 -70.67488605 67.69743306 C-68.14163279 65.23598084 -65.60951652 62.77336274 -63.07796192 60.31016362 C-42.2253326 40.02349938 -21.17870316 19.94591944 0 0 Z " fill="#04F7FE" transform="translate(169,276)"/>
<path d="M0 0 C2.88206598 16.99444718 5.66190095 36.8915872 -4.5379265 51.88415647 C-12.98961372 62.97773156 -23.31454313 72.49945496 -33.48729777 81.98156261 C-38.21615568 86.43545029 -42.81772957 91.01748046 -47.43544006 95.58599854 C-55.17724792 103.211953 -62.99073013 110.75625184 -70.86791992 118.2421875 C-78.96624437 125.93868422 -87.0137998 133.68304268 -95.00170898 141.49414062 C-95.49698485 141.97842206 -95.99226071 142.46270349 -96.50254493 142.96166012 C-98.98790623 145.3923968 -101.47239797 147.82402021 -103.95653903 150.25600386 C-119.43800054 165.40969618 -134.99036088 180.48845994 -150.64819336 195.45996094 C-151.83039333 196.5924634 -151.83039333 196.5924634 -153.03647614 197.7478447 C-155.21419067 199.83278292 -157.39524249 201.9141538 -159.57774353 203.99407959 C-160.22072811 204.60996374 -160.86371268 205.22584789 -161.52618164 205.86039519 C-165.88456225 210 -165.88456225 210 -167 210 C-167.07476562 208.97261719 -167.14953125 207.94523438 -167.2265625 206.88671875 C-168.05081879 197.6135551 -169.32153855 187.99552844 -176.75390625 181.45703125 C-177.16511719 180.97621094 -177.57632812 180.49539063 -178 180 C-177.57821889 176.71952816 -176.43790745 175.06338996 -174.13108826 172.75915146 C-173.51663629 172.13810964 -172.90218431 171.51706783 -172.26911259 170.87720656 C-171.58790065 170.20405103 -170.90668871 169.5308955 -170.20483398 168.83734131 C-169.48597991 168.11521839 -168.76712584 167.39309548 -168.0264883 166.64909005 C-165.60678179 164.22207865 -163.17646998 161.80597184 -160.74609375 159.38964844 C-159.01296315 157.65572732 -157.28048541 155.92115344 -155.5486145 154.18597412 C-151.32626116 149.95901137 -147.0970139 145.73906032 -142.86456609 141.52221367 C-137.9399544 136.61512279 -133.02339295 131.69999937 -128.1072067 126.78446987 C-119.3389248 118.01787642 -110.56359716 109.25837007 -101.78417969 100.50292969 C-93.25659113 91.99861371 -84.73357496 83.4897516 -76.21582031 74.97558594 C-75.69093722 74.45092561 -75.16605412 73.92626528 -74.62526548 73.38570616 C-73.5679476 72.32883087 -72.51063001 71.2719553 -71.4533127 70.21507944 C-70.9317998 69.69378611 -70.4102869 69.17249278 -69.87297058 68.63540268 C-69.09273231 67.85548839 -69.09273231 67.85548839 -68.29673165 67.05981825 C-60.18958399 58.95636719 -52.07860741 50.85674932 -43.96710008 42.75766258 C-41.02276112 39.81776501 -38.0789252 36.8773648 -35.13543391 33.93661854 C-30.03349298 28.83951413 -24.92893903 23.74504539 -19.82146835 18.65348053 C-18.12138486 16.95793601 -16.42215626 15.26153385 -14.72381973 13.5642395 C-12.41658075 11.25873462 -10.1063088 8.95631464 -7.79516602 6.65472412 C-7.11395408 5.9726457 -6.43274214 5.29056728 -5.73088741 4.58781981 C-1.11420718 0 -1.11420718 0 0 0 Z " fill="#16D3FE" transform="translate(500,88)"/>
<path d="M0 0 C4.38197414 1.69022241 7.81336998 3.83783183 11.62109375 6.5625 C16.79735439 9.69035536 21.93159957 10.34856277 27.875 10.625 C28.56335938 10.66367187 29.25171875 10.70234375 29.9609375 10.7421875 C31.64023246 10.83548166 33.32007767 10.91878238 35 11 C34.30892434 11.52244923 33.61784868 12.04489845 32.90583134 12.58317947 C29.51432087 15.40394612 26.5365579 18.47008068 23.50669861 21.66912842 C22.86785235 22.33816515 22.22900608 23.00720189 21.57080084 23.69651246 C20.17396611 25.15951997 18.77839938 26.62373892 17.38394356 28.08901405 C13.50038842 32.16840858 9.60542754 36.23687843 5.71018982 40.30511475 C4.46427136 41.60664262 4.46427136 41.60664262 3.19318283 42.93446398 C-7.95606948 54.56855717 -19.20968338 66.10157364 -30.46742261 77.6305797 C-32.84630193 80.06711912 -35.22413158 82.50468039 -37.60131836 84.94287109 C-38.0744194 85.4280793 -38.54752044 85.9132875 -39.03495788 86.41319898 C-46.65586959 94.23374486 -54.19667984 102.12724169 -61.71023602 110.05082354 C-69.46030998 118.22011384 -77.29691584 126.29936083 -85.21108621 134.31030965 C-89.63956616 138.79847847 -94.02234784 143.31560842 -98.31376839 147.93532562 C-127.47413725 179.24291774 -127.47413725 179.24291774 -148.36451501 180.34298253 C-157.99867745 180.51141964 -167.50543418 179.57025443 -177 178 C-172.7992669 172.98770953 -168.41991025 168.27882464 -163.78665161 163.66639709 C-163.08323761 162.96212867 -162.37982361 162.25786024 -161.65509403 161.53225034 C-159.31295571 159.18847354 -156.96727719 156.84827326 -154.62158203 154.50805664 C-152.93577451 152.82253137 -151.25018751 151.13678551 -149.56480408 149.45083618 C-145.47269197 145.35846728 -141.37829529 141.26839473 -137.28287096 137.17934073 C-132.51479552 132.41843295 -127.74956515 127.65468174 -122.9845017 122.89075964 C-114.48771824 114.39616119 -105.98870712 105.90379522 -97.48828125 97.4128418 C-89.23417547 89.16792438 -80.9811276 80.92195037 -72.72949219 72.67456055 C-72.22029228 72.16562337 -71.71109238 71.65668619 -71.18646218 71.13232667 C-68.63179257 68.57896216 -66.07714366 66.02557695 -63.52250504 63.47218144 C-42.35154454 42.31157641 -21.17692558 21.15463546 0 0 Z " fill="#16D3FE" transform="translate(265,322)"/>
<path d="M0 0 C0.69792538 0.19515324 1.39585075 0.39030647 2.11492538 0.59137344 C-2.20847936 5.75867543 -6.7434084 10.59008969 -11.51602554 15.34257889 C-12.26435862 16.09176639 -13.0126917 16.84095389 -13.78370154 17.61284405 C-16.27785368 20.10863598 -18.77554956 22.60085014 -21.27325821 25.09308243 C-23.06743872 26.88698072 -24.86139877 28.68109954 -26.65515518 30.47542191 C-30.51032331 34.33081735 -34.36701276 38.18468062 -38.22511292 42.0371418 C-43.8031873 47.60706864 -49.37847887 53.1797742 -54.95310803 58.75314892 C-63.99894892 67.7968044 -73.04701795 76.83822721 -82.0965004 85.87823868 C-90.88413432 94.65668526 -99.67071113 103.43618771 -108.4558754 112.21710587 C-108.99793225 112.7589 -109.53998911 113.30069413 -110.09847192 113.85890626 C-112.81796631 116.57709556 -115.53744 119.29530555 -118.25690341 122.01352584 C-140.79641989 144.54268562 -163.3395947 167.06818137 -185.88507462 189.59137344 C-187.00181973 188.64095257 -188.11759951 187.68939736 -189.23297501 186.73736954 C-189.85442902 186.20759506 -190.47588303 185.67782059 -191.11616898 185.13199234 C-193.2795183 183.24783483 -195.31206475 181.26215541 -197.32257462 179.21637344 C-198.34157852 178.18383438 -198.34157852 178.18383438 -199.38116837 177.13043594 C-199.87745743 176.62254532 -200.37374649 176.11465469 -200.88507462 175.59137344 C-199.59129428 172.75787501 -198.21793705 170.66116479 -196.05220795 168.42861176 C-195.47106617 167.82498692 -194.8899244 167.22136208 -194.29117227 166.59944558 C-193.33257794 165.61889439 -193.33257794 165.61889439 -192.35461807 164.61853409 C-191.67578874 163.91682894 -190.99695941 163.21512378 -190.2975595 162.49215484 C-188.01563341 160.13654744 -185.72641019 157.78817557 -183.43683243 155.44000626 C-181.80028731 153.75492031 -180.16396561 152.06961736 -178.5278511 150.38411331 C-163.55423867 134.9768219 -148.48367556 119.66385607 -133.38828278 104.37595367 C-131.36630044 102.32771942 -129.34456908 100.2792378 -127.3230629 98.2305336 C-126.82066809 97.72140048 -126.31827328 97.21226736 -125.80065438 96.68770596 C-117.6891854 88.46420079 -109.63537752 80.18647588 -101.60266271 71.88610664 C-93.3352174 63.34553918 -85.01069513 54.86382644 -76.63102412 46.43332744 C-71.93519237 41.70587501 -67.26923581 36.95420796 -62.6643486 32.1376152 C-25.9847859 -6.15981218 -25.9847859 -6.15981218 0 0 Z " fill="#0CF3FE" transform="translate(472.8850746154785,-0.5913734436035156)"/>
<path d="M0 0 C8.3519222 6.1056471 16.14985671 14.61456971 18.0625 25.125 C19.05522088 38.5125501 17.81435636 48.83300207 8.875 59.5 C1.12228208 67.52361156 -7.8239022 72.26502188 -19.08959961 72.50585938 C-31.95121757 72.47097647 -40.5340107 69.31735742 -49.9375 60.125 C-58.10409448 50.11877266 -61.19776817 38.99393558 -59.9375 26.125 C-57.20977041 15.69727947 -50.82600617 6.23299911 -41.9375 0.125 C-28.33235475 -7.15875321 -13.59208881 -8.7603496 0 0 Z " fill="#000405" transform="translate(314.9375,260.875)"/>
<path d="M0 0 C7.9124892 7.64013903 13.11641248 16.4224792 13.5 27.5625 C13.19196194 37.12507288 10.87769679 45.57396182 5.125 53.25 C4.42375 54.260625 3.7225 55.27125 3 56.3125 C-2.88123606 63.12726559 -11.90584756 67.8239311 -20.79296875 68.5859375 C-34.60627865 68.87877645 -44.47780326 66.06868423 -54.74609375 56.5078125 C-62.15706639 48.82590107 -65.33006906 40.11666294 -65.375 29.5625 C-65.08899933 17.05920771 -61.01741923 8.17771725 -51.92578125 -0.640625 C-36.60975984 -12.9431493 -15.02525842 -12.60913646 0 0 Z " fill="#000505" transform="translate(231.875,264.75)"/>
<path d="M0 0 C9.2177552 5.9525737 15.36462221 13.66787365 19 24 C21.05657442 34.28287208 20.54546788 44.67475214 15.3359375 53.96875 C8.43846485 63.97145934 -0.52868108 71.21656444 -12.5625 73.75 C-24.7019347 74.63286798 -34.29657471 72.74313735 -44 65 C-46.8125 62.4375 -46.8125 62.4375 -49 60 C-50.0209375 58.88625 -50.0209375 58.88625 -51.0625 57.75 C-53.65525894 54.06995505 -55.26883254 50.13692131 -57 46 C-57.33 45.34 -57.66 44.68 -58 44 C-58.82659637 30.8828641 -58.24901186 20.44809672 -49.6796875 9.875 C-37.09217018 -4.17618213 -17.1525108 -9.54410867 0 0 Z " fill="#000405" transform="translate(225,171)"/>
<path d="M0 0 C5.43733055 4.52991796 10.46458931 9.34294216 15.4375 14.375 C16.16904297 15.11105469 16.90058594 15.84710938 17.65429688 16.60546875 C19.43852723 18.40136074 21.22036124 20.19955985 23 22 C21.47790068 25.65959287 19.30977974 27.83097777 16.4296875 30.51953125 C15.53378906 31.37740234 14.63789063 32.23527344 13.71484375 33.11914062 C11.82332601 34.91309039 9.9222473 36.69701325 8.01171875 38.47070312 C7.11839844 39.33244141 6.22507812 40.19417969 5.3046875 41.08203125 C4.47952637 41.85780518 3.65436523 42.6335791 2.80419922 43.43286133 C0.46172709 46.76589169 0.66427175 49.01604502 1 53 C3.88738241 54.44369121 5.79463166 54.36248579 9 54 C11.82850697 51.99714943 11.82850697 51.99714943 14.3984375 49.1875 C15.11817245 48.45503052 15.11817245 48.45503052 15.85244751 47.70776367 C17.3746801 46.15206962 18.87467747 44.57680579 20.375 43 C21.4061505 41.93874055 22.43868902 40.87882786 23.47265625 39.8203125 C25.99803619 37.22894777 28.50389535 34.61961148 31 32 C35.26615504 34.04066983 37.73398524 36.58553002 41 40 C39.39140496 44.01571255 36.56359635 46.70479614 33.54052734 49.68652344 C32.98428177 50.24306107 32.42803619 50.79959869 31.85493469 51.3730011 C30.01997095 53.20657442 28.17803069 55.03296672 26.3359375 56.859375 C25.06040611 58.13117525 23.78531633 59.40341853 22.51065063 60.67608643 C19.15804605 64.02106258 15.79947827 67.35998851 12.43963623 70.69769287 C9.01082544 74.10602831 5.58768427 77.52004745 2.1640625 80.93359375 C-4.55175272 87.62797297 -11.27388094 94.31597466 -18 101 C-19.586149 98.6207765 -20.87756634 96.33848129 -22.1875 93.8125 C-28.06766736 83.34376274 -35.03533076 78.28049448 -46.31640625 74.15234375 C-55.89019067 71.49002064 -65.94195455 73.46889754 -75 77 C-72.40012526 70.971719 -67.59896546 65.46171757 -62 62 C-58.55582206 61.15375608 -55.50597343 60.77310232 -51.99584961 60.56494141 C-42.3797147 59.94897753 -33.47896079 55.12685687 -27 48 C-21.44831682 41.40902069 -17.98135673 33.46300188 -18.0065918 24.71484375 C-17.90765704 19.2464501 -16.95465028 16.34875393 -13.18359375 12.3046875 C-11.62406313 10.80437956 -10.04120404 9.32799451 -8.4375 7.875 C-7.22803711 6.72644531 -7.22803711 6.72644531 -5.99414062 5.5546875 C-4.01500866 3.6809531 -2.0181208 1.83152357 0 0 Z " fill="#00F6FC" transform="translate(262,183)"/>
<path d="M0 0 C5.88926867 4.45811306 9.36475515 10.42600378 10.546875 17.7109375 C10.95310498 26.25274628 8.69036217 32.63537307 3.046875 39.04296875 C-3.03114398 44.88680836 -9.0213618 47.70554921 -17.43359375 48.1875 C-24.84801091 47.89040663 -31.04806755 44.32664234 -36.4296875 39.39453125 C-42.53163018 32.7220173 -43.30455895 25.72678884 -43.20703125 17.0078125 C-42.53220228 8.9677073 -37.90817238 3.82300933 -31.93359375 -1.25 C-21.91838805 -8.23735281 -9.78242527 -6.3239921 0 0 Z " fill="#15D2FB" transform="translate(310.93359375,273.25)"/>
<path d="M0 0 C5.9112618 3.41219177 11.80561532 8.09398241 14.18359375 14.734375 C15.87952781 23.19903704 15.56585458 31.28526636 11.17578125 38.81640625 C7.11816497 44.36624414 2.2045831 47.84407208 -4.375 49.9375 C-7.13049369 50.26849023 -9.56928392 50.46377916 -12.3125 50.4375 C-13.01689209 50.43105469 -13.72128418 50.42460937 -14.44702148 50.41796875 C-22.78891132 50.12421982 -26.68191401 46.90934133 -32.1875 41.0625 C-37.34667009 34.7254372 -39.02516662 29.13055387 -38.78125 21 C-37.72404035 13.03026571 -33.62350349 7.24372074 -27.39453125 2.34375 C-19.2197978 -3.34852088 -9.10473101 -4.21180686 0 0 Z " fill="#00F8FD" transform="translate(217.375,270.0625)"/>
<path d="M0 0 C1.05453369 0.00858032 1.05453369 0.00858032 2.13037109 0.01733398 C9.30053752 0.26171537 14.70064277 2.31390322 20.08203125 7.14453125 C25.94427052 13.46319791 27.84973675 19.90460846 27.59375 28.4375 C26.75009661 35.95368479 23.86858512 41.97124946 18.21484375 47.02734375 C10.83505802 52.55851516 3.35943681 53.75074892 -5.75 52.5 C-13.8994176 50.04044003 -19.64024213 44.91986372 -23.84375 37.59375 C-26.61249648 31.33843387 -27.00121877 24.314827 -24.87109375 17.8203125 C-19.94379126 7.12009786 -12.22872322 -0.11558616 0 0 Z " fill="#21DBFC" transform="translate(204.75,179.5)"/>
<path d="M0 0 C2.81420898 2.13305664 2.81420898 2.13305664 5.49609375 4.91015625 C5.97450211 5.39705429 6.45291046 5.88395233 6.94581604 6.38560486 C8.45782147 7.93096916 9.94752296 9.49591622 11.4375 11.0625 C12.46408637 12.11920864 13.49206881 13.17456291 14.52148438 14.22851562 C17.03066265 16.80354211 19.52027647 19.39655993 22 22 C25.96625212 18.73827951 29.64065474 15.40570549 33.15625 11.66015625 C34.22552734 10.5319043 34.22552734 10.5319043 35.31640625 9.38085938 C36.78583903 7.82073709 38.24142228 6.24746602 39.68359375 4.66210938 C45.08596363 -0.9698368 45.08596363 -0.9698368 49.90625 -1.12890625 C53 0 53 0 55 2 C55.42797852 4.79638672 55.42797852 4.79638672 55 8 C52.96459961 10.63720703 52.96459961 10.63720703 50.15234375 13.2578125 C49.66165909 13.72814911 49.17097443 14.19848572 48.66542053 14.68307495 C47.10308423 16.17893712 45.52280764 17.6535303 43.9375 19.125 C42.34964587 20.60449852 40.767031 22.08798087 39.1988678 23.58834839 C37.77999088 24.94549948 36.34337682 26.2840337 34.90600586 27.62158203 C32.81207634 29.75464132 32.81207634 29.75464132 32.91210938 32.01367188 C34.43089969 34.7867594 36.38595776 36.61007515 38.69140625 38.7734375 C39.63564453 39.6809375 40.57988281 40.5884375 41.55273438 41.5234375 C43.0571561 42.95341209 44.5658861 44.37816261 46.08276367 45.79492188 C47.54858918 47.16992294 48.99528495 48.56522781 50.44140625 49.9609375 C51.31482666 50.78384277 52.18824707 51.60674805 53.08813477 52.45458984 C55.42590388 55.56703791 55.48268765 57.19224131 55 61 C53.875 62.875 53.875 62.875 52 64 C49.3125 64.625 49.3125 64.625 46 64 C42.96452097 62.07030261 40.5410195 59.52941667 38 57 C37.39784668 56.40477539 36.79569336 55.80955078 36.17529297 55.19628906 C31.75581633 50.82481543 27.36771065 46.4231601 23 42 C19.33954532 43.52440797 17.14706947 45.69973066 14.4453125 48.5703125 C13.15173828 49.91416016 13.15173828 49.91416016 11.83203125 51.28515625 C10.02714518 53.17859373 8.23024006 55.07967108 6.44140625 56.98828125 C5.57644531 57.88160156 4.71148437 58.77492187 3.8203125 59.6953125 C3.03930176 60.52047363 2.25829102 61.34563477 1.45361328 62.19580078 C-1.62274829 64.45792138 -3.25965686 64.51065081 -7 64 C-7.99 63.34 -8.98 62.68 -10 62 C-10.63523623 57.7308949 -10.52220808 55.72769494 -7.98046875 52.18579102 C-7.05878906 51.30076904 -6.13710938 50.41574707 -5.1875 49.50390625 C-4.69918701 49.02549789 -4.21087402 48.54708954 -3.70776367 48.05418396 C-2.15423743 46.53964169 -0.5781404 45.05133441 1 43.5625 C2.06148667 42.53614796 3.12140187 41.50816799 4.1796875 40.47851562 C6.7685347 37.96657588 9.37820501 35.47758359 12 33 C10.47790068 29.34040713 8.30977974 27.16902223 5.4296875 24.48046875 C4.53378906 23.62259766 3.63789063 22.76472656 2.71484375 21.88085938 C0.82332601 20.08690961 -1.0777527 18.30298675 -2.98828125 16.52929688 C-3.88160156 15.66755859 -4.77492188 14.80582031 -5.6953125 13.91796875 C-6.52047363 13.14219482 -7.34563477 12.3664209 -8.19580078 11.56713867 C-10.56064166 8.20228051 -10.40722207 6.02746776 -10 2 C-7.69711187 -2.33484824 -4.22372293 -0.98646798 0 0 Z " fill="#000303" transform="translate(272,174)"/>
<path d="M0 0 C3.95374187 3.33116615 7.81041857 6.68428556 11.4375 10.375 C12.11683594 11.06335938 12.79617188 11.75171875 13.49609375 12.4609375 C14.24052734 13.22277344 14.24052734 13.22277344 15 14 C13.39683663 17.88624202 10.75689797 20.62589234 7.88623047 23.6105957 C7.10504349 24.43318123 7.10504349 24.43318123 6.30807495 25.27238464 C1.5010639 30.31704588 -3.36209051 35.30852287 -8.239748 40.2848177 C-11.51134832 43.62266371 -14.76417941 46.9748861 -17.97705078 50.36938477 C-21.09279779 53.66071817 -24.24909006 56.90764511 -27.43764877 60.12843895 C-28.63969939 61.35669361 -29.8271117 62.59946771 -30.99847794 63.85701942 C-40.65823714 74.19103077 -40.65823714 74.19103077 -47.19842529 74.48519897 C-50.01355462 74.39061554 -52.57946569 74.01904598 -55.37887573 73.56169128 C-62.31743985 72.48541477 -68.62837786 74.31780738 -75 77 C-72.40012526 70.971719 -67.59896546 65.46171757 -62 62 C-58.55582206 61.15375608 -55.50597343 60.77310232 -51.99584961 60.56494141 C-42.3797147 59.94897753 -33.47896079 55.12685687 -27 48 C-21.44831682 41.40902069 -17.98135673 33.46300188 -18.0065918 24.71484375 C-17.90765704 19.2464501 -16.95465028 16.34875393 -13.18359375 12.3046875 C-11.62406313 10.80437956 -10.04120404 9.32799451 -8.4375 7.875 C-7.22803711 6.72644531 -7.22803711 6.72644531 -5.99414062 5.5546875 C-4.01500866 3.6809531 -2.0181208 1.83152357 0 0 Z " fill="#0CF1FC" transform="translate(262,183)"/>
<path d="M0 0 C0.99 0.66 1.98 1.32 3 2 C1.6238464 5.09179136 0.04841555 7.19638753 -2.34814453 9.57519531 C-3.02869904 10.25559875 -3.70925354 10.9360022 -4.41043091 11.63702393 C-5.14381683 12.36008728 -5.87720276 13.08315063 -6.6328125 13.828125 C-7.38464813 14.57713074 -8.13648376 15.32613647 -8.91110229 16.09783936 C-11.31107901 18.4866302 -13.71792009 20.86836897 -16.125 23.25 C-17.75436352 24.86933169 -19.38327534 26.48911802 -21.01171875 28.109375 C-25.00258806 32.07820505 -28.99911415 36.04126899 -33 40 C-36.6702064 38.77659787 -37.29925941 37.16295121 -39.1328125 33.88671875 C-42.0486159 27.54287621 -42.1652687 19.2820115 -40.3515625 12.6171875 C-37.28642327 5.93675585 -31.5975217 0.20960515 -25 -3 C-16.32015606 -5.67217903 -7.75361554 -4.51059588 0 0 Z " fill="#0CDFFC" transform="translate(309,272)"/>
<path d="M0 0 C0.99 0.33 1.98 0.66 3 1 C5.50182819 8.50548458 4.58693068 16.63034855 1.3203125 23.74609375 C-2.1683693 29.70162451 -6.99179742 33.7799506 -13.39453125 36.34765625 C-19.04981289 37.76359633 -25.94607783 38.30953782 -31.38671875 35.9765625 C-31.91910156 35.65429688 -32.45148438 35.33203125 -33 35 C-31.67005617 32.04734888 -30.22220684 29.97649784 -27.92724609 27.70019531 C-27.30675385 27.07985413 -26.6862616 26.45951294 -26.04696655 25.82037354 C-25.37920197 25.16293152 -24.71143738 24.5054895 -24.0234375 23.828125 C-23.33819 23.1457074 -22.6529425 22.46328979 -21.94692993 21.76019287 C-19.76094155 19.58538402 -17.56809571 17.41763928 -15.375 15.25 C-13.89016745 13.7752001 -12.40578694 12.29994494 -10.921875 10.82421875 C-7.2864709 7.21084552 -3.64490176 3.60379147 0 0 Z " fill="#15E7FD" transform="translate(228,195)"/>
<path d="M0 0 C-5.85120718 7.12236496 -12.44766639 13.42018406 -19.09570312 19.79296875 C-19.96775391 20.64761719 -20.83980469 21.50226563 -21.73828125 22.3828125 C-22.53274658 23.14996582 -23.32721191 23.91711914 -24.14575195 24.70751953 C-26.16839869 27.20819799 -26.66587137 28.83747425 -27 32 C-27.33 32 -27.66 32 -28 32 C-28.65814434 23.48799981 -28.05864027 17.06254608 -23 10 C-16.37942845 2.65919891 -9.8870997 -0.52037367 0 0 Z " fill="#0CECF4" transform="translate(207,268)"/>
<path d="M0 0 C0.33 0 0.66 0 1 0 C1 6.6 1 13.2 1 20 C-5.6 20 -12.2 20 -19 20 C-17.16755232 16.33510463 -16.30560361 15.15137115 -13.3125 12.6875 C-9.80251704 9.73374385 -6.59503358 6.61800065 -3.4453125 3.28515625 C-2 2 -2 2 0 2 C0 1.34 0 0.68 0 0 Z " fill="#B6B4FF" transform="translate(499,480)"/>
<path d="M0 0 C5 5 5 5 6.9921875 7.02734375 C10.22395343 10.30604404 13.47714834 13.47088808 17 16.4375 C17.99 17.283125 18.98 18.12875 20 19 C20 19.33 20 19.66 20 20 C13.4 20 6.8 20 0 20 C0 13.4 0 6.8 0 0 Z " fill="#98FBFF" transform="translate(0,480)"/>
<path d="M0 0 C-0.25706882 7.06939247 -2.30655137 11.67813983 -7 17 C-12.32186017 21.69344863 -16.93060753 23.74293118 -24 24 C-19.33267726 18.39474638 -14.35682563 13.20538407 -9.1875 8.0625 C-8.41212891 7.28326172 -7.63675781 6.50402344 -6.83789062 5.70117188 C-5.7328418 4.59805664 -5.7328418 4.59805664 -4.60546875 3.47265625 C-3.93668701 2.80500244 -3.26790527 2.13734863 -2.57885742 1.44946289 C-1 0 -1 0 0 0 Z " fill="#0CEBF9" transform="translate(232,296)"/>
<path d="M0 0 C0.66 0.33 1.32 0.66 2 1 C0.92492371 2.29854721 -0.16043736 3.58858361 -1.25 4.875 C-1.85328125 5.59429687 -2.4565625 6.31359375 -3.078125 7.0546875 C-4.97087634 8.97052118 -6.53657727 9.96449045 -9 11 C-7.59155282 7.78475695 -5.89655214 5.67816132 -3.375 3.25 C-2.74335938 2.63640625 -2.11171875 2.0228125 -1.4609375 1.390625 C-0.73777344 0.70226562 -0.73777344 0.70226562 0 0 Z " fill="#0CE6F6" transform="translate(227,218)"/>
<path d="M0 0 C1.98 0 3.96 0 6 0 C4.35830472 2.02054804 2.69088222 4.02043058 1 6 C0.67 6 0.34 6 0 6 C0 4.02 0 2.04 0 0 Z " fill="#CC8DFF" transform="translate(0,0)"/>
</svg>
